<svg xmlns="http://www.w3.org/2000/svg" viewBox="0 0 880 836" width="880" height="836" font-family="system-ui, -apple-system, Segoe UI, sans-serif">
<rect x="0" y="0" width="880" height="836" fill="#1a1a19"/>
<circle cx="28" cy="22" r="3" fill="#898781"/>
<text x="38" y="26" font-size="12.5" fill="#c3c2b7">public repository (linked below)</text>
<rect x="317.75" y="15" width="16" height="12" rx="6" fill="none" stroke="#898781" stroke-width="1.1" stroke-dasharray="2,2"/>
<text x="339.75" y="26" font-size="12.5" fill="#c3c2b7">private / internal (named only)</text>
<path d="M 59.2 258.0 C 59.2 284.0, 160.0 284.0, 160.0 310.0" fill="none" stroke="#898781" stroke-width="1.5" stroke-dasharray="3,3" opacity="0.7"/>
<path d="M 428.4 338.0 C 428.4 383.0, 144.5 383.0, 144.5 428.0" fill="none" stroke="#898781" stroke-width="1.5" stroke-dasharray="3,3" opacity="0.7"/>
<path d="M 401.2 376.0 C 401.2 402.0, 144.5 402.0, 144.5 428.0" fill="none" stroke="#898781" stroke-width="1.5" stroke-dasharray="3,3" opacity="0.7"/>
<path d="M 144.5 376.0 C 144.5 402.0, 144.5 402.0, 144.5 428.0" fill="none" stroke="#898781" stroke-width="1.5" stroke-dasharray="3,3" opacity="0.7"/>
<text x="24" y="63" font-size="14.5" font-weight="600" fill="#ffffff">Published Research</text>
<rect x="24.0" y="74.0" width="225.5" height="28" rx="14.0" fill="#3987e5" fill-opacity="0.16" stroke="#3987e5" stroke-width="1.6"/>
<circle cx="36.0" cy="88.0" r="3" fill="#3987e5"/>
<text x="46.0" y="92.4" font-size="12.5" fill="#ffffff">Network Risk Parity (2024)</text>
<rect x="257.5" y="74.0" width="233.2" height="28" rx="14.0" fill="#3987e5" fill-opacity="0.16" stroke="#3987e5" stroke-width="1.6"/>
<circle cx="269.5" cy="88.0" r="3" fill="#3987e5"/>
<text x="279.5" y="92.4" font-size="12.5" fill="#ffffff">AMAD — MST Stability (2025)</text>
<rect x="498.8" y="74.0" width="341.8" height="28" rx="14.0" fill="#3987e5" fill-opacity="0.16" stroke="#3987e5" stroke-width="1.6"/>
<circle cx="510.8" cy="88.0" r="3" fill="#3987e5"/>
<text x="520.8" y="92.4" font-size="12.5" fill="#ffffff">Regime Detection via Realized Cov. (2022)</text>
<rect x="24.0" y="112.0" width="287.5" height="28" rx="14.0" fill="none" stroke="#3987e5" stroke-width="1.1" stroke-opacity="0.55" stroke-dasharray="2,2"/>
<text x="36.0" y="130.4" font-size="12.5" fill="#c3c2b7">Regime-Switching Portfolios (2023)</text>
<rect x="319.5" y="112.0" width="279.8" height="28" rx="14.0" fill="#3987e5" fill-opacity="0.16" stroke="#3987e5" stroke-width="1.6"/>
<circle cx="331.5" cy="126.0" r="3" fill="#3987e5"/>
<text x="341.5" y="130.4" font-size="12.5" fill="#ffffff">Early-Warning Risk Signals (2025)</text>
<rect x="607.2" y="112.0" width="210.0" height="28" rx="14.0" fill="none" stroke="#3987e5" stroke-width="1.1" stroke-opacity="0.55" stroke-dasharray="2,2"/>
<text x="619.2" y="130.4" font-size="12.5" fill="#c3c2b7">GARCH Forecasting (2024)</text>
<rect x="24.0" y="150.0" width="155.8" height="28" rx="14.0" fill="#3987e5" fill-opacity="0.16" stroke="#3987e5" stroke-width="1.6"/>
<circle cx="36.0" cy="164.0" r="3" fill="#3987e5"/>
<text x="46.0" y="168.4" font-size="12.5" fill="#ffffff">+6 more → Scholar</text>
<text x="24" y="219" font-size="14.5" font-weight="600" fill="#ffffff">Data &amp; Methods Infra</text>
<rect x="24.0" y="230.0" width="70.5" height="28" rx="14.0" fill="#199e70" fill-opacity="0.16" stroke="#199e70" stroke-width="1.6"/>
<circle cx="36.0" cy="244.0" r="3" fill="#199e70"/>
<text x="46.0" y="248.4" font-size="12.5" fill="#ffffff">SynFin</text>
<rect x="102.5" y="230.0" width="155.8" height="28" rx="14.0" fill="#199e70" fill-opacity="0.16" stroke="#199e70" stroke-width="1.6"/>
<circle cx="114.5" cy="244.0" r="3" fill="#199e70"/>
<text x="124.5" y="248.4" font-size="12.5" fill="#ffffff">Causality Toolkit</text>
<rect x="266.2" y="230.0" width="217.8" height="28" rx="14.0" fill="none" stroke="#199e70" stroke-width="1.1" stroke-opacity="0.55" stroke-dasharray="2,2"/>
<text x="278.2" y="248.4" font-size="12.5" fill="#c3c2b7">Trading Performance Eval.</text>
<text x="24" y="299" font-size="14.5" font-weight="600" fill="#ffffff">Regime &amp; Network Research</text>
<rect x="24.0" y="310.0" width="272.0" height="28" rx="14.0" fill="none" stroke="#c98500" stroke-width="1.1" stroke-opacity="0.55" stroke-dasharray="2,2"/>
<text x="36.0" y="328.4" font-size="12.5" fill="#c3c2b7">Graph-Theoretic Regime Detection</text>
<rect x="304.0" y="310.0" width="248.8" height="28" rx="14.0" fill="none" stroke="#c98500" stroke-width="1.1" stroke-opacity="0.55" stroke-dasharray="2,2"/>
<text x="316.0" y="328.4" font-size="12.5" fill="#c3c2b7">Max-Entropy Portfolios (Katz)</text>
<rect x="560.8" y="310.0" width="217.8" height="28" rx="14.0" fill="none" stroke="#c98500" stroke-width="1.1" stroke-opacity="0.55" stroke-dasharray="2,2"/>
<text x="572.8" y="328.4" font-size="12.5" fill="#c3c2b7">TDA vs Spectral Detection</text>
<rect x="24.0" y="348.0" width="241.0" height="28" rx="14.0" fill="none" stroke="#c98500" stroke-width="1.1" stroke-opacity="0.55" stroke-dasharray="2,2"/>
<text x="36.0" y="366.4" font-size="12.5" fill="#c3c2b7">RMT / Spectral Early-Warning</text>
<rect x="273.0" y="348.0" width="256.5" height="28" rx="14.0" fill="none" stroke="#c98500" stroke-width="1.1" stroke-opacity="0.55" stroke-dasharray="2,2"/>
<text x="285.0" y="366.4" font-size="12.5" fill="#c3c2b7">Macro Regimes (8-Regime Model)</text>
<rect x="537.5" y="348.0" width="287.5" height="28" rx="14.0" fill="none" stroke="#c98500" stroke-width="1.1" stroke-opacity="0.55" stroke-dasharray="2,2"/>
<text x="549.5" y="366.4" font-size="12.5" fill="#c3c2b7">Max-Diversification + Graph Theory</text>
<text x="24" y="417" font-size="14.5" font-weight="600" fill="#ffffff">Strategy Engines</text>
<rect x="24.0" y="428.0" width="241.0" height="28" rx="14.0" fill="none" stroke="#008300" stroke-width="1.1" stroke-opacity="0.55" stroke-dasharray="2,2"/>
<text x="36.0" y="446.4" font-size="12.5" fill="#c3c2b7">AlphaForge (GP Alpha Mining)</text>
<rect x="273.0" y="428.0" width="225.5" height="28" rx="14.0" fill="none" stroke="#008300" stroke-width="1.1" stroke-opacity="0.55" stroke-dasharray="2,2"/>
<text x="285.0" y="446.4" font-size="12.5" fill="#c3c2b7">QuantEngine (Live Trading)</text>
<rect x="506.5" y="428.0" width="171.2" height="28" rx="14.0" fill="none" stroke="#008300" stroke-width="1.1" stroke-opacity="0.55" stroke-dasharray="2,2"/>
<text x="518.5" y="446.4" font-size="12.5" fill="#c3c2b7">Hermes (Backtester)</text>
<rect x="24.0" y="466.0" width="248.8" height="28" rx="14.0" fill="none" stroke="#008300" stroke-width="1.1" stroke-opacity="0.55" stroke-dasharray="2,2"/>
<text x="36.0" y="484.4" font-size="12.5" fill="#c3c2b7">Options Volatility Strategies</text>
<rect x="280.8" y="466.0" width="233.2" height="28" rx="14.0" fill="none" stroke="#008300" stroke-width="1.1" stroke-opacity="0.55" stroke-dasharray="2,2"/>
<text x="292.8" y="484.4" font-size="12.5" fill="#c3c2b7">Prediction-Market Arbitrage</text>
<rect x="522.0" y="466.0" width="194.5" height="28" rx="14.0" fill="none" stroke="#008300" stroke-width="1.1" stroke-opacity="0.55" stroke-dasharray="2,2"/>
<text x="534.0" y="484.4" font-size="12.5" fill="#c3c2b7">Trading Data Pipelines</text>
<text x="24" y="535" font-size="14.5" font-weight="600" fill="#ffffff">Risk &amp; PM Tooling</text>
<rect x="24.0" y="546.0" width="225.5" height="28" rx="14.0" fill="none" stroke="#9085e9" stroke-width="1.1" stroke-opacity="0.55" stroke-dasharray="2,2"/>
<text x="36.0" y="564.4" font-size="12.5" fill="#c3c2b7">RiskFish (Scenario Engine)</text>
<rect x="257.5" y="546.0" width="194.5" height="28" rx="14.0" fill="none" stroke="#9085e9" stroke-width="1.1" stroke-opacity="0.55" stroke-dasharray="2,2"/>
<text x="269.5" y="564.4" font-size="12.5" fill="#c3c2b7">Macro Cockpit (PM App)</text>
<rect x="460.0" y="546.0" width="217.8" height="28" rx="14.0" fill="none" stroke="#9085e9" stroke-width="1.1" stroke-opacity="0.55" stroke-dasharray="2,2"/>
<text x="472.0" y="564.4" font-size="12.5" fill="#c3c2b7">Macro — PM's Second Brain</text>
<rect x="24.0" y="584.0" width="233.2" height="28" rx="14.0" fill="none" stroke="#9085e9" stroke-width="1.1" stroke-opacity="0.55" stroke-dasharray="2,2"/>
<text x="36.0" y="602.4" font-size="12.5" fill="#c3c2b7">IGambling (Games of Chance)</text>
<text x="24" y="653" font-size="14.5" font-weight="600" fill="#ffffff">Creative &amp; AI Simulation</text>
<rect x="24.0" y="664.0" width="217.8" height="28" rx="14.0" fill="#e66767" fill-opacity="0.16" stroke="#e66767" stroke-width="1.6"/>
<circle cx="36.0" cy="678.0" r="3" fill="#e66767"/>
<text x="46.0" y="682.4" font-size="12.5" fill="#ffffff">WAITING (Godot × Beckett)</text>
<rect x="249.8" y="664.0" width="210.0" height="28" rx="14.0" fill="#e66767" fill-opacity="0.16" stroke="#e66767" stroke-width="1.6"/>
<circle cx="261.8" cy="678.0" r="3" fill="#e66767"/>
<text x="271.8" y="682.4" font-size="12.5" fill="#ffffff">Delphi (Multi-Agent Sim)</text>
<rect x="467.8" y="664.0" width="171.2" height="28" rx="14.0" fill="#e66767" fill-opacity="0.16" stroke="#e66767" stroke-width="1.6"/>
<circle cx="479.8" cy="678.0" r="3" fill="#e66767"/>
<text x="489.8" y="682.4" font-size="12.5" fill="#ffffff">Demiurge (God-Game)</text>
<text x="24" y="733" font-size="14.5" font-weight="600" fill="#ffffff">Personal &amp; AI Tooling</text>
<rect x="24.0" y="744.0" width="225.5" height="28" rx="14.0" fill="none" stroke="#d55181" stroke-width="1.1" stroke-opacity="0.55" stroke-dasharray="2,2"/>
<text x="36.0" y="762.4" font-size="12.5" fill="#c3c2b7">Lodestar (Health Platform)</text>
<rect x="257.5" y="744.0" width="210.0" height="28" rx="14.0" fill="none" stroke="#d55181" stroke-width="1.1" stroke-opacity="0.55" stroke-dasharray="2,2"/>
<text x="269.5" y="762.4" font-size="12.5" fill="#c3c2b7">Roana (Job-Search Agent)</text>
<rect x="475.5" y="744.0" width="124.8" height="28" rx="14.0" fill="none" stroke="#d55181" stroke-width="1.1" stroke-opacity="0.55" stroke-dasharray="2,2"/>
<text x="487.5" y="762.4" font-size="12.5" fill="#c3c2b7">Claude Agents</text>
<rect x="608.2" y="744.0" width="148.0" height="28" rx="14.0" fill="none" stroke="#d55181" stroke-width="1.1" stroke-opacity="0.55" stroke-dasharray="2,2"/>
<text x="620.2" y="762.4" font-size="12.5" fill="#c3c2b7">Claude Standards</text>
<rect x="24.0" y="782.0" width="148.0" height="28" rx="14.0" fill="none" stroke="#d55181" stroke-width="1.1" stroke-opacity="0.55" stroke-dasharray="2,2"/>
<text x="36.0" y="800.4" font-size="12.5" fill="#c3c2b7">Innovation Radar</text>
<rect x="180.0" y="782.0" width="186.8" height="28" rx="14.0" fill="none" stroke="#d55181" stroke-width="1.1" stroke-opacity="0.55" stroke-dasharray="2,2"/>
<text x="192.0" y="800.4" font-size="12.5" fill="#c3c2b7">Morning Market Digest</text>
</svg>